<svg xmlns="http://www.w3.org/2000/svg" xmlns:xlink="http://www.w3.org/1999/xlink" width="1024" zoomAndPan="magnify" viewBox="0 0 768 767.999994" height="1024" preserveAspectRatio="xMidYMid meet" version="1.0"><defs><clipPath id="8c1f090a02"><path d="M 79 90 L 690 90 L 690 677 L 79 677 Z M 79 90 " clip-rule="nonzero"/></clipPath><clipPath id="2a5e897f76"><path d="M 384.855469 90.839844 L 463.199219 303.757812 C 463.511719 304.605469 464.304688 305.183594 465.210938 305.21875 L 688.882812 313.808594 C 689.117188 313.816406 689.320312 313.96875 689.390625 314.191406 C 689.464844 314.414062 689.394531 314.65625 689.210938 314.804688 L 513.65625 456.097656 C 512.949219 456.667969 512.648438 457.601562 512.890625 458.476562 L 573.300781 676.15625 C 573.363281 676.378906 573.277344 676.617188 573.089844 676.75 C 572.902344 676.886719 572.648438 676.890625 572.457031 676.761719 L 385.578125 551.699219 C 384.828125 551.199219 383.847656 551.199219 383.097656 551.699219 L 196.21875 676.761719 C 196.027344 676.890625 195.773438 676.886719 195.585938 676.75 C 195.398438 676.617188 195.316406 676.378906 195.375 676.15625 L 255.785156 458.476562 C 256.027344 457.601562 255.726562 456.667969 255.019531 456.097656 L 79.464844 314.804688 C 79.28125 314.65625 79.210938 314.414062 79.285156 314.191406 C 79.355469 313.96875 79.558594 313.816406 79.792969 313.808594 L 303.464844 305.21875 C 304.371094 305.183594 305.164062 304.605469 305.476562 303.757812 L 383.820312 90.839844 C 383.902344 90.625 384.109375 90.480469 384.339844 90.480469 C 384.570312 90.480469 384.773438 90.625 384.855469 90.839844 Z M 384.855469 90.839844 " clip-rule="nonzero"/></clipPath><clipPath id="686a7a04e2"><path d="M 0.199219 0.480469 L 610.519531 0.480469 L 610.519531 587 L 0.199219 587 Z M 0.199219 0.480469 " clip-rule="nonzero"/></clipPath><clipPath id="8a7ca9651a"><path d="M 305.855469 0.839844 L 384.199219 213.757812 C 384.511719 214.605469 385.304688 215.183594 386.210938 215.21875 L 609.882812 223.808594 C 610.117188 223.816406 610.320312 223.96875 610.390625 224.191406 C 610.464844 224.414062 610.394531 224.65625 610.210938 224.804688 L 434.65625 366.097656 C 433.949219 366.667969 433.648438 367.601562 433.890625 368.476562 L 494.300781 586.15625 C 494.363281 586.378906 494.277344 586.617188 494.089844 586.75 C 493.902344 586.886719 493.648438 586.890625 493.457031 586.761719 L 306.578125 461.699219 C 305.828125 461.199219 304.847656 461.199219 304.097656 461.699219 L 117.21875 586.761719 C 117.027344 586.890625 116.773438 586.886719 116.585938 586.75 C 116.398438 586.617188 116.316406 586.378906 116.375 586.15625 L 176.785156 368.476562 C 177.027344 367.601562 176.726562 366.667969 176.019531 366.097656 L 0.464844 224.804688 C 0.28125 224.65625 0.210938 224.414062 0.285156 224.191406 C 0.355469 223.96875 0.558594 223.816406 0.792969 223.808594 L 224.464844 215.21875 C 225.371094 215.183594 226.164062 214.605469 226.476562 213.757812 L 304.820312 0.839844 C 304.902344 0.625 305.109375 0.480469 305.339844 0.480469 C 305.570312 0.480469 305.773438 0.625 305.855469 0.839844 Z M 305.855469 0.839844 " clip-rule="nonzero"/></clipPath><clipPath id="b1c1b7a894"><rect x="0" width="611" y="0" height="587"/></clipPath><clipPath id="a584eecde9"><path d="M 78 90 L 690 90 L 690 677 L 78 677 Z M 78 90 " clip-rule="nonzero"/></clipPath><clipPath id="84d307bf8e"><path d="M 384.511719 90.839844 L 462.855469 303.753906 C 463.167969 304.601562 463.960938 305.179688 464.867188 305.214844 L 688.535156 313.804688 C 688.769531 313.8125 688.972656 313.96875 689.042969 314.1875 C 689.117188 314.410156 689.046875 314.652344 688.863281 314.800781 L 513.3125 456.09375 C 512.605469 456.660156 512.304688 457.597656 512.546875 458.46875 L 572.953125 676.144531 C 573.015625 676.367188 572.933594 676.605469 572.746094 676.742188 C 572.554688 676.878906 572.304688 676.882812 572.113281 676.753906 L 385.238281 551.691406 C 384.484375 551.191406 383.503906 551.191406 382.753906 551.691406 L 195.878906 676.753906 C 195.6875 676.882812 195.433594 676.878906 195.246094 676.742188 C 195.058594 676.605469 194.976562 676.367188 195.035156 676.144531 L 255.445312 458.46875 C 255.6875 457.597656 255.386719 456.660156 254.679688 456.09375 L 79.125 314.800781 C 78.945312 314.652344 78.871094 314.410156 78.945312 314.1875 C 79.019531 313.96875 79.222656 313.8125 79.457031 313.804688 L 303.125 305.214844 C 304.027344 305.179688 304.820312 304.601562 305.132812 303.753906 L 383.480469 90.839844 C 383.558594 90.625 383.765625 90.480469 383.996094 90.480469 C 384.226562 90.480469 384.433594 90.625 384.511719 90.839844 Z M 384.511719 90.839844 " clip-rule="nonzero"/></clipPath></defs><g clip-path="url(#8c1f090a02)"><g clip-path="url(#2a5e897f76)"><g transform="matrix(1, 0, 0, 1, 79, 90)"><g clip-path="url(#b1c1b7a894)"><g clip-path="url(#686a7a04e2)"><g clip-path="url(#8a7ca9651a)"><rect x="-247.96" width="1105.92" fill="#eebe5e" height="1105.919991" y="-258.959999" fill-opacity="1"/></g></g></g></g></g></g><g clip-path="url(#a584eecde9)"><g clip-path="url(#84d307bf8e)"><path stroke-linecap="butt" transform="matrix(0.75, 0, 0, 0.75, 77.962434, 89.438454)" fill="none" stroke-linejoin="miter" d="M 408.732373 1.86852 L 513.190705 285.753932 C 513.607372 286.884141 514.664663 287.654974 515.872997 287.701849 L 814.096951 299.154974 C 814.409451 299.16539 814.680284 299.373724 814.774034 299.66539 C 814.872992 299.962265 814.779242 300.285182 814.534451 300.483099 L 580.466746 488.873721 C 579.524037 489.628929 579.122996 490.878929 579.445912 492.040388 L 659.987578 782.274758 C 660.070911 782.571633 659.961536 782.889342 659.711536 783.071633 C 659.456328 783.253925 659.122995 783.259133 658.862578 783.087258 L 409.701123 616.337261 C 408.695915 615.670594 407.388623 615.670594 406.388623 616.337261 L 157.22196 783.087258 C 156.966752 783.259133 156.62821 783.253925 156.37821 783.071633 C 156.12821 782.889342 156.018835 782.571633 156.09696 782.274758 L 236.643834 492.040388 C 236.966751 490.878929 236.565709 489.628929 235.623001 488.873721 L 1.550088 300.483099 C 1.310504 300.285182 1.211546 299.962265 1.310504 299.66539 C 1.409463 299.373724 1.680296 299.16539 1.992796 299.154974 L 300.21675 287.701849 C 301.419875 287.654974 302.477166 286.884141 302.893833 285.753932 L 407.357373 1.86852 C 407.46154 1.582061 407.737582 1.389353 408.044873 1.389353 C 408.352165 1.389353 408.628207 1.582061 408.732373 1.86852 Z M 408.732373 1.86852 " stroke="#c79746" stroke-width="18" stroke-opacity="1" stroke-miterlimit="4"/></g></g></svg>