<svg xmlns="http://www.w3.org/2000/svg" xmlns:xlink="http://www.w3.org/1999/xlink" width="1024" zoomAndPan="magnify" viewBox="0 0 768 767.999994" height="1024" preserveAspectRatio="xMidYMid meet" version="1.0"><defs><clipPath id="1c41e98550"><path d="M 164.265625 234.398438 L 603.726562 234.398438 L 603.726562 623.21875 L 164.265625 623.21875 Z M 164.265625 234.398438 " clip-rule="nonzero"/></clipPath><clipPath id="5c705eca70"><path d="M 77 134.96875 L 691 134.96875 L 691 423 L 77 423 Z M 77 134.96875 " clip-rule="nonzero"/></clipPath></defs><g clip-path="url(#1c41e98550)"><path fill="#ab4f41" d="M 381.601562 235.546875 L 166.160156 413.15625 C 165.535156 413.667969 165.105469 414.371094 164.910156 415.160156 C 164.910156 415.164062 164.910156 415.167969 164.910156 415.167969 C 164.777344 415.675781 164.710938 416.046875 164.710938 416.304688 L 164.710938 599.039062 C 164.710938 605.636719 167.128906 611.355469 171.949219 616.171875 C 176.773438 620.988281 182.484375 623.414062 189.082031 623.414062 L 331.5 623.414062 C 333.574219 623.414062 335.261719 621.726562 335.261719 619.648438 L 335.261719 480.992188 C 335.261719 478.910156 336.949219 477.222656 339.027344 477.222656 L 428.96875 477.222656 C 431.042969 477.222656 432.730469 478.910156 432.730469 480.992188 L 432.730469 619.65625 C 432.730469 621.730469 434.414062 623.417969 436.496094 623.417969 L 578.910156 623.417969 C 585.507812 623.417969 591.230469 620.996094 596.042969 616.171875 C 600.867188 611.363281 603.289062 605.636719 603.289062 599.039062 L 603.289062 416.304688 C 603.289062 416.171875 603.285156 416.042969 603.277344 415.910156 C 603.242188 414.863281 602.726562 413.886719 601.914062 413.21875 L 386.394531 235.546875 C 385.003906 234.398438 382.992188 234.398438 381.601562 235.546875 " fill-opacity="1" fill-rule="nonzero"/></g><g clip-path="url(#5c705eca70)"><path fill="#ab4f41" d="M 686.644531 372.914062 L 603.277344 303.625 L 603.277344 148.300781 C 603.277344 144.75 602.136719 141.832031 599.84375 139.542969 C 597.574219 137.261719 594.652344 136.121094 591.09375 136.121094 L 518.003906 136.121094 C 514.445312 136.121094 511.53125 137.261719 509.242188 139.542969 C 506.960938 141.832031 505.820312 144.75 505.820312 148.300781 L 505.820312 222.535156 L 412.929688 144.871094 C 404.820312 138.273438 395.171875 134.972656 384.003906 134.972656 C 372.835938 134.972656 363.195312 138.273438 355.070312 144.871094 L 81.339844 372.914062 C 78.804688 374.941406 77.414062 377.671875 77.152344 381.09375 C 76.894531 384.523438 77.78125 387.511719 79.816406 390.046875 L 103.421875 418.21875 C 105.453125 420.5 108.117188 421.894531 111.414062 422.410156 C 114.460938 422.664062 117.507812 421.777344 120.554688 419.742188 L 383.996094 200.078125 L 647.441406 419.742188 C 649.472656 421.511719 652.136719 422.398438 655.433594 422.398438 L 656.582031 422.398438 C 659.875 421.894531 662.53125 420.492188 664.574219 418.214844 L 688.179688 390.046875 C 690.207031 387.507812 691.101562 384.519531 690.835938 381.089844 C 690.574219 377.671875 689.175781 374.941406 686.644531 372.914062 " fill-opacity="1" fill-rule="nonzero"/></g></svg>