<svg xmlns="http://www.w3.org/2000/svg" xmlns:xlink="http://www.w3.org/1999/xlink" width="1024" zoomAndPan="magnify" viewBox="0 0 768 767.999994" height="1024" preserveAspectRatio="xMidYMid meet" version="1.0"><defs><clipPath id="d384cb8ff3"><path d="M 76.800781 170 L 691.050781 170 L 691.050781 598.519531 L 76.800781 598.519531 Z M 76.800781 170 " clip-rule="nonzero"/></clipPath></defs><g clip-path="url(#d384cb8ff3)"><path fill="#689ad4" d="M 261.261719 170.285156 C 260.710938 170.34375 258.980469 170.535156 257.410156 170.703125 C 247.09375 171.8125 240.246094 173.714844 226.191406 179.378906 C 185.269531 195.875 146.871094 205.140625 116.070312 205.949219 L 109.585938 206.117188 L 109.585938 549.292969 L 110.226562 549.292969 C 111.359375 549.292969 120.9375 548.15625 127.261719 547.273438 C 161.5625 542.484375 197.917969 533.425781 226.191406 522.628906 C 238.894531 517.777344 245.949219 516 256.128906 515.089844 C 287.722656 512.269531 332.957031 524.417969 374.480469 546.882812 C 376.929688 548.210938 379.015625 549.292969 379.113281 549.292969 C 379.210938 549.292969 379.289062 472.066406 379.289062 377.683594 L 379.289062 206.070312 L 375.371094 203.679688 C 346.375 185.984375 314.671875 174.386719 285.492188 170.800781 C 281.855469 170.355469 263.988281 169.972656 261.261719 170.285156 M 491.90625 170.28125 C 491.355469 170.34375 489.496094 170.527344 487.773438 170.691406 C 459.667969 173.359375 424.261719 186.339844 394.054688 205.058594 L 392.707031 205.890625 L 392.699219 377.617188 C 392.695312 472.066406 392.789062 549.296875 392.910156 549.246094 C 393.027344 549.195312 395.21875 548.015625 397.777344 546.625 C 435.625 526.074219 476.394531 514.316406 507.871094 514.882812 C 522.425781 515.144531 529.207031 516.496094 544.222656 522.128906 C 571.949219 532.527344 601.335938 540.28125 632.460938 545.414062 C 643.214844 547.1875 659.078125 549.292969 661.679688 549.292969 L 662.394531 549.292969 L 662.394531 206.121094 L 655.625 205.941406 C 625.089844 205.144531 585.125 195.507812 545.789062 179.460938 C 532.40625 174 526.601562 172.335938 515.570312 170.796875 C 512.464844 170.363281 494.648438 169.976562 491.90625 170.28125 M 94.761719 226.863281 C 93.585938 226.984375 89.0625 227.171875 84.710938 227.292969 L 76.800781 227.503906 L 76.800781 598.046875 L 78.019531 598.046875 C 79.835938 598.046875 93.625 596.445312 101.601562 595.308594 C 140.277344 589.804688 176.945312 580.972656 210.085938 569.183594 C 227.394531 563.023438 235.84375 561.3125 251.441406 560.808594 C 285.585938 559.703125 332.820312 572.410156 376.753906 594.515625 C 380.613281 596.457031 383.847656 598.046875 383.949219 598.046875 C 384.046875 598.046875 388.140625 596.066406 393.042969 593.648438 C 443.601562 568.703125 493.566406 557.074219 529.824219 561.8125 C 539.289062 563.050781 544.601562 564.449219 558.042969 569.230469 C 590.609375 580.824219 627.554688 589.75 665.390625 595.164062 C 674.941406 596.527344 687.9375 598.046875 690.085938 598.046875 L 691.191406 598.046875 L 691.191406 227.417969 L 685.988281 227.40625 C 681.285156 227.398438 678.765625 227.277344 670.878906 226.675781 L 668.382812 226.488281 L 668.382812 560.695312 L 667.308594 560.695312 C 663.105469 560.695312 640.3125 557.554688 625.921875 554.988281 C 596.101562 549.675781 570.375 542.929688 543.792969 533.453125 C 535.476562 530.488281 531.386719 529.308594 525.628906 528.214844 C 490.65625 521.558594 441.011719 532.207031 391.277344 557.035156 L 384.023438 560.660156 L 376.027344 556.703125 C 328.539062 533.222656 281.347656 522.457031 247.429688 527.367188 C 239.128906 528.566406 234.71875 529.722656 224.480469 533.378906 C 187.207031 546.6875 136.339844 558.007812 102.226562 560.582031 L 99.609375 560.78125 L 99.609375 226.5625 L 98.253906 226.605469 C 97.507812 226.632812 95.9375 226.746094 94.761719 226.863281 " fill-opacity="1" fill-rule="evenodd"/></g></svg>