<svg xmlns="http://www.w3.org/2000/svg" xmlns:xlink="http://www.w3.org/1999/xlink" width="1024" zoomAndPan="magnify" viewBox="0 0 768 767.999994" height="1024" preserveAspectRatio="xMidYMid meet" version="1.0"><defs><clipPath id="fdbde90900"><path d="M 81 76.800781 L 689 76.800781 L 689 691 L 81 691 Z M 81 76.800781 " clip-rule="nonzero"/></clipPath></defs><g clip-path="url(#fdbde90900)"><path fill="#3f4b6f" d="M 485.945312 379.050781 C 488.273438 377.296875 490.554688 375.484375 492.789062 373.613281 C 495.023438 371.738281 497.207031 369.8125 499.34375 367.824219 C 501.476562 365.839844 503.558594 363.800781 505.585938 361.707031 C 507.613281 359.613281 509.585938 357.46875 511.5 355.269531 C 513.417969 353.074219 515.277344 350.828125 517.074219 348.535156 C 518.875 346.242188 520.613281 343.90625 522.292969 341.519531 C 523.96875 339.136719 525.585938 336.710938 527.136719 334.246094 C 528.6875 331.777344 530.175781 329.269531 531.59375 326.726562 C 533.015625 324.179688 534.371094 321.601562 535.65625 318.984375 C 536.945312 316.367188 538.164062 313.722656 539.3125 311.042969 C 540.460938 308.363281 541.539062 305.65625 542.546875 302.921875 C 543.558594 300.1875 544.492188 297.425781 545.359375 294.644531 C 546.222656 291.859375 547.015625 289.054688 547.734375 286.230469 C 548.453125 283.40625 549.097656 280.5625 549.667969 277.707031 C 550.238281 274.847656 550.734375 271.976562 551.15625 269.089844 C 551.578125 266.207031 551.925781 263.3125 552.195312 260.410156 C 552.464844 257.507812 552.660156 254.601562 552.78125 251.6875 C 552.902344 248.777344 552.945312 245.863281 552.914062 242.949219 C 552.878906 240.03125 552.773438 237.121094 552.589844 234.210938 C 552.40625 231.300781 552.148438 228.398438 551.8125 225.503906 C 551.476562 222.609375 551.066406 219.722656 550.582031 216.847656 C 550.097656 213.972656 549.539062 211.113281 548.90625 208.269531 C 548.273438 205.425781 547.566406 202.597656 546.785156 199.789062 C 546.003906 196.980469 545.152344 194.195312 544.226562 191.429688 C 543.300781 188.664062 542.300781 185.925781 541.234375 183.214844 C 540.167969 180.503906 539.027344 177.820312 537.820312 175.167969 C 536.613281 172.515625 535.335938 169.894531 533.992188 167.308594 C 532.648438 164.722656 531.238281 162.171875 529.761719 159.65625 C 528.285156 157.144531 526.742188 154.671875 525.136719 152.238281 C 523.53125 149.804688 521.867188 147.414062 520.136719 145.070312 C 518.40625 142.722656 516.617188 140.421875 514.765625 138.171875 C 512.917969 135.917969 511.011719 133.714844 509.046875 131.558594 C 507.082031 129.40625 505.0625 127.304688 502.988281 125.253906 C 500.917969 123.207031 498.789062 121.214844 496.613281 119.273438 C 494.4375 117.335938 492.210938 115.457031 489.933594 113.632812 C 487.660156 111.8125 485.339844 110.050781 482.972656 108.347656 C 480.605469 106.648438 478.195312 105.007812 475.742188 103.429688 C 473.292969 101.855469 470.800781 100.34375 468.269531 98.898438 C 465.738281 97.449219 463.171875 96.070312 460.570312 94.757812 C 457.96875 93.445312 455.332031 92.199219 452.664062 91.023438 C 449.996094 89.847656 447.300781 88.742188 444.578125 87.707031 C 441.851562 86.671875 439.101562 85.707031 436.328125 84.816406 C 433.550781 83.921875 430.753906 83.101562 427.9375 82.355469 C 425.121094 81.609375 422.285156 80.9375 419.433594 80.335938 C 416.578125 79.738281 413.714844 79.210938 410.832031 78.761719 C 407.953125 78.3125 405.0625 77.9375 402.164062 77.636719 C 399.265625 77.335938 396.359375 77.113281 393.449219 76.964844 C 390.535156 76.816406 387.625 76.742188 384.707031 76.746094 C 381.792969 76.746094 378.882812 76.828125 375.96875 76.980469 C 373.058594 77.136719 370.15625 77.367188 367.253906 77.671875 C 364.355469 77.976562 361.46875 78.359375 358.589844 78.8125 C 355.710938 79.269531 352.84375 79.800781 349.992188 80.40625 C 347.140625 81.011719 344.308594 81.6875 341.492188 82.441406 C 338.675781 83.195312 335.878906 84.019531 333.105469 84.917969 C 330.332031 85.816406 327.585938 86.785156 324.863281 87.824219 C 322.140625 88.867188 319.445312 89.976562 316.78125 91.160156 C 314.117188 92.339844 311.484375 93.589844 308.882812 94.90625 C 306.285156 96.226562 303.71875 97.609375 301.191406 99.0625 C 298.664062 100.515625 296.175781 102.03125 293.726562 103.613281 C 291.277344 105.191406 288.871094 106.835938 286.507812 108.542969 C 284.144531 110.25 281.828125 112.015625 279.554688 113.84375 C 277.285156 115.667969 275.0625 117.554688 272.890625 119.496094 C 270.714844 121.4375 268.59375 123.4375 266.523438 125.488281 C 264.457031 127.542969 262.441406 129.648438 260.480469 131.804688 C 258.519531 133.964844 256.617188 136.171875 254.773438 138.429688 C 252.929688 140.683594 251.144531 142.988281 249.417969 145.335938 C 247.691406 147.6875 246.03125 150.082031 244.429688 152.515625 C 242.828125 154.953125 241.292969 157.429688 239.820312 159.945312 C 238.347656 162.460938 236.945312 165.015625 235.605469 167.601562 C 234.265625 170.191406 232.996094 172.816406 231.792969 175.46875 C 230.589844 178.125 229.457031 180.8125 228.394531 183.523438 C 227.332031 186.238281 226.339844 188.980469 225.421875 191.746094 C 224.5 194.511719 223.652344 197.300781 222.878906 200.109375 C 222.101562 202.917969 221.402344 205.746094 220.773438 208.59375 C 220.144531 211.441406 219.589844 214.300781 219.113281 217.175781 C 218.632812 220.050781 218.230469 222.9375 217.902344 225.835938 C 217.570312 228.730469 217.320312 231.632812 217.140625 234.542969 C 216.964844 237.453125 216.859375 240.367188 216.835938 243.28125 C 216.808594 246.195312 216.859375 249.109375 216.984375 252.019531 C 217.109375 254.933594 217.308594 257.839844 217.585938 260.742188 C 217.863281 263.644531 218.214844 266.535156 218.644531 269.421875 C 219.070312 272.304688 219.570312 275.175781 220.148438 278.03125 C 220.726562 280.890625 221.375 283.730469 222.101562 286.554688 C 222.824219 289.375 223.621094 292.179688 224.492188 294.960938 C 225.363281 297.742188 226.304688 300.5 227.316406 303.234375 C 228.332031 305.96875 229.414062 308.671875 230.570312 311.347656 C 231.726562 314.023438 232.949219 316.671875 234.242188 319.28125 C 235.53125 321.894531 236.890625 324.472656 238.316406 327.015625 C 239.746094 329.558594 241.234375 332.0625 242.792969 334.527344 C 244.347656 336.992188 245.96875 339.414062 247.652344 341.792969 C 249.332031 344.171875 251.078125 346.507812 252.882812 348.796875 C 254.683594 351.089844 256.546875 353.328125 258.46875 355.523438 C 260.390625 357.714844 262.367188 359.855469 264.398438 361.945312 C 266.429688 364.035156 268.515625 366.070312 270.652344 368.050781 C 272.792969 370.035156 274.980469 371.957031 277.21875 373.824219 C 279.457031 375.691406 281.742188 377.5 284.074219 379.25 C 280.40625 380.546875 276.769531 381.917969 273.15625 383.355469 C 269.542969 384.792969 265.957031 386.300781 262.402344 387.875 C 258.847656 389.453125 255.324219 391.097656 251.832031 392.808594 C 248.339844 394.519531 244.882812 396.296875 241.460938 398.140625 C 238.035156 399.984375 234.648438 401.894531 231.296875 403.867188 C 227.949219 405.839844 224.636719 407.878906 221.363281 409.980469 C 218.089844 412.082031 214.859375 414.246094 211.671875 416.46875 C 208.484375 418.695312 205.335938 420.980469 202.234375 423.328125 C 199.132812 425.671875 196.078125 428.078125 193.070312 430.542969 C 190.0625 433.003906 187.101562 435.527344 184.1875 438.101562 C 181.277344 440.679688 178.414062 443.3125 175.601562 446 C 172.792969 448.683594 170.035156 451.425781 167.328125 454.21875 C 164.621094 457.011719 161.96875 459.855469 159.375 462.75 C 156.777344 465.644531 154.234375 468.585938 151.753906 471.578125 C 149.269531 474.574219 146.84375 477.609375 144.476562 480.695312 C 142.109375 483.78125 139.800781 486.910156 137.554688 490.085938 C 135.308594 493.257812 133.121094 496.476562 131 499.734375 C 128.875 502.992188 126.816406 506.289062 124.820312 509.625 C 122.820312 512.960938 120.890625 516.335938 119.023438 519.746094 C 117.15625 523.160156 115.355469 526.605469 113.617188 530.085938 C 111.882812 533.566406 110.214844 537.078125 108.617188 540.621094 C 107.015625 544.164062 105.484375 547.738281 104.023438 551.34375 C 102.558594 554.945312 101.164062 558.574219 99.84375 562.234375 C 98.519531 565.890625 97.265625 569.570312 96.082031 573.273438 C 94.902344 576.980469 93.789062 580.707031 92.75 584.453125 C 91.710938 588.199219 90.746094 591.964844 89.851562 595.75 C 88.957031 599.535156 88.136719 603.335938 87.386719 607.152344 C 86.636719 610.96875 85.964844 614.796875 85.363281 618.636719 C 84.761719 622.480469 84.230469 626.332031 83.777344 630.195312 C 83.324219 634.058594 82.945312 637.925781 82.640625 641.804688 C 82.335938 645.679688 82.105469 649.5625 81.949219 653.445312 C 81.792969 657.332031 81.710938 661.21875 81.703125 665.109375 C 81.703125 665.953125 81.746094 666.796875 81.828125 667.640625 C 81.910156 668.480469 82.035156 669.316406 82.199219 670.144531 C 82.367188 670.972656 82.570312 671.792969 82.816406 672.601562 C 83.0625 673.410156 83.347656 674.207031 83.667969 674.988281 C 83.992188 675.769531 84.355469 676.53125 84.753906 677.277344 C 85.152344 678.023438 85.585938 678.746094 86.054688 679.449219 C 86.523438 680.152344 87.027344 680.832031 87.5625 681.484375 C 88.101562 682.140625 88.667969 682.765625 89.265625 683.363281 C 89.863281 683.960938 90.488281 684.527344 91.144531 685.0625 C 91.796875 685.601562 92.476562 686.101562 93.175781 686.574219 C 93.878906 687.042969 94.605469 687.476562 95.351562 687.875 C 96.097656 688.273438 96.859375 688.636719 97.640625 688.957031 C 98.421875 689.28125 99.21875 689.566406 100.027344 689.8125 C 100.835938 690.058594 101.652344 690.261719 102.484375 690.425781 C 103.3125 690.59375 104.148438 690.714844 104.988281 690.800781 C 105.832031 690.882812 106.675781 690.921875 107.519531 690.921875 C 108.363281 690.921875 109.207031 690.882812 110.050781 690.800781 C 110.890625 690.714844 111.726562 690.59375 112.554688 690.425781 C 113.386719 690.261719 114.203125 690.058594 115.011719 689.8125 C 115.820312 689.566406 116.617188 689.28125 117.398438 688.957031 C 118.179688 688.636719 118.941406 688.273438 119.6875 687.875 C 120.433594 687.476562 121.160156 687.042969 121.863281 686.574219 C 122.5625 686.101562 123.242188 685.601562 123.894531 685.0625 C 124.550781 684.527344 125.175781 683.960938 125.773438 683.363281 C 126.371094 682.765625 126.9375 682.140625 127.472656 681.484375 C 128.011719 680.832031 128.515625 680.152344 128.984375 679.449219 C 129.453125 678.746094 129.886719 678.023438 130.285156 677.277344 C 130.683594 676.53125 131.046875 675.769531 131.371094 674.988281 C 131.691406 674.207031 131.976562 673.410156 132.222656 672.601562 C 132.46875 671.792969 132.671875 670.972656 132.839844 670.144531 C 133.003906 669.316406 133.128906 668.480469 133.210938 667.640625 C 133.292969 666.796875 133.335938 665.953125 133.335938 665.109375 C 133.335938 660.984375 133.433594 656.863281 133.636719 652.746094 C 133.839844 648.628906 134.144531 644.515625 134.546875 640.414062 C 134.953125 636.308594 135.457031 632.21875 136.0625 628.140625 C 136.667969 624.0625 137.371094 620 138.175781 615.957031 C 138.980469 611.910156 139.882812 607.890625 140.886719 603.890625 C 141.886719 599.890625 142.984375 595.917969 144.183594 591.972656 C 145.378906 588.023438 146.671875 584.109375 148.0625 580.230469 C 149.453125 576.347656 150.933594 572.5 152.511719 568.691406 C 154.089844 564.882812 155.761719 561.113281 157.523438 557.386719 C 159.289062 553.65625 161.140625 549.976562 163.085938 546.339844 C 165.027344 542.703125 167.058594 539.117188 169.179688 535.578125 C 171.300781 532.042969 173.503906 528.558594 175.796875 525.132812 C 178.085938 521.703125 180.460938 518.332031 182.917969 515.019531 C 185.371094 511.710938 187.910156 508.460938 190.523438 505.273438 C 193.140625 502.085938 195.832031 498.964844 198.601562 495.910156 C 201.371094 492.851562 204.214844 489.867188 207.128906 486.953125 C 210.042969 484.035156 213.03125 481.195312 216.085938 478.425781 C 219.140625 475.65625 222.261719 472.964844 225.449219 470.347656 C 228.636719 467.730469 231.886719 465.195312 235.199219 462.738281 C 238.511719 460.28125 241.878906 457.910156 245.308594 455.617188 C 248.738281 453.328125 252.21875 451.121094 255.757812 449.003906 C 259.292969 446.882812 262.878906 444.851562 266.515625 442.90625 C 270.152344 440.964844 273.835938 439.109375 277.5625 437.347656 C 281.289062 435.585938 285.058594 433.914062 288.867188 432.335938 C 292.675781 430.757812 296.523438 429.273438 300.40625 427.886719 C 304.289062 426.496094 308.203125 425.203125 312.148438 424.007812 C 316.09375 422.808594 320.066406 421.710938 324.066406 420.707031 C 328.066406 419.707031 332.089844 418.800781 336.132812 418 C 340.175781 417.195312 344.238281 416.488281 348.316406 415.882812 C 352.394531 415.277344 356.488281 414.773438 360.589844 414.371094 C 364.695312 413.964844 368.804688 413.664062 372.921875 413.460938 C 377.042969 413.257812 381.164062 413.15625 385.285156 413.15625 C 389.410156 413.15625 393.53125 413.257812 397.648438 413.460938 C 401.765625 413.664062 405.878906 413.964844 409.980469 414.371094 C 414.085938 414.773438 418.175781 415.277344 422.253906 415.882812 C 426.332031 416.488281 430.394531 417.195312 434.4375 418 C 438.484375 418.800781 442.503906 419.707031 446.503906 420.707031 C 450.503906 421.710938 454.476562 422.808594 458.421875 424.007812 C 462.371094 425.203125 466.285156 426.496094 470.164062 427.886719 C 474.046875 429.273438 477.894531 430.757812 481.703125 432.335938 C 485.511719 433.914062 489.28125 435.585938 493.007812 437.347656 C 496.738281 439.109375 500.417969 440.964844 504.054688 442.90625 C 507.691406 444.851562 511.277344 446.882812 514.816406 449.003906 C 518.351562 451.121094 521.835938 453.328125 525.261719 455.617188 C 528.691406 457.910156 532.0625 460.28125 535.375 462.738281 C 538.683594 465.195312 541.933594 467.730469 545.121094 470.347656 C 548.308594 472.964844 551.429688 475.65625 554.488281 478.425781 C 557.542969 481.195312 560.527344 484.035156 563.441406 486.953125 C 566.359375 489.867188 569.199219 492.851562 571.96875 495.910156 C 574.738281 498.964844 577.429688 502.085938 580.046875 505.273438 C 582.664062 508.460938 585.199219 511.710938 587.65625 515.019531 C 590.113281 518.332031 592.484375 521.703125 594.777344 525.132812 C 597.066406 528.558594 599.273438 532.042969 601.390625 535.578125 C 603.511719 539.117188 605.542969 542.703125 607.488281 546.339844 C 609.429688 549.976562 611.285156 553.65625 613.046875 557.386719 C 614.8125 561.113281 616.480469 564.882812 618.058594 568.691406 C 619.636719 572.5 621.121094 576.347656 622.507812 580.230469 C 623.898438 584.109375 625.191406 588.023438 626.390625 591.972656 C 627.585938 595.917969 628.683594 599.890625 629.6875 603.890625 C 630.6875 607.890625 631.59375 611.910156 632.398438 615.957031 C 633.199219 620 633.90625 624.0625 634.511719 628.140625 C 635.117188 632.21875 635.621094 636.308594 636.023438 640.414062 C 636.429688 644.515625 636.730469 648.628906 636.933594 652.746094 C 637.136719 656.863281 637.238281 660.984375 637.238281 665.109375 C 637.238281 665.953125 637.277344 666.796875 637.363281 667.640625 C 637.445312 668.480469 637.570312 669.316406 637.734375 670.144531 C 637.898438 670.972656 638.105469 671.792969 638.347656 672.601562 C 638.59375 673.410156 638.878906 674.207031 639.203125 674.988281 C 639.527344 675.769531 639.886719 676.53125 640.285156 677.277344 C 640.683594 678.023438 641.117188 678.746094 641.589844 679.449219 C 642.058594 680.152344 642.5625 680.832031 643.097656 681.484375 C 643.632812 682.140625 644.199219 682.765625 644.796875 683.363281 C 645.398438 683.960938 646.023438 684.527344 646.675781 685.0625 C 647.328125 685.601562 648.007812 686.101562 648.710938 686.574219 C 649.414062 687.042969 650.136719 687.476562 650.882812 687.875 C 651.628906 688.273438 652.390625 688.636719 653.171875 688.957031 C 653.953125 689.28125 654.75 689.566406 655.558594 689.8125 C 656.367188 690.058594 657.1875 690.261719 658.015625 690.425781 C 658.84375 690.59375 659.679688 690.714844 660.523438 690.800781 C 661.363281 690.882812 662.207031 690.921875 663.050781 690.921875 C 663.898438 690.921875 664.742188 690.882812 665.582031 690.800781 C 666.425781 690.714844 667.257812 690.59375 668.089844 690.425781 C 668.917969 690.261719 669.738281 690.058594 670.546875 689.8125 C 671.355469 689.566406 672.148438 689.28125 672.929688 688.957031 C 673.710938 688.636719 674.476562 688.273438 675.222656 687.875 C 675.96875 687.476562 676.691406 687.042969 677.394531 686.574219 C 678.097656 686.101562 678.777344 685.601562 679.429688 685.0625 C 680.082031 684.527344 680.707031 683.960938 681.304688 683.363281 C 681.902344 682.765625 682.472656 682.140625 683.007812 681.484375 C 683.542969 680.832031 684.046875 680.152344 684.515625 679.449219 C 684.988281 678.746094 685.421875 678.023438 685.820312 677.277344 C 686.21875 676.53125 686.578125 675.769531 686.902344 674.988281 C 687.226562 674.207031 687.511719 673.410156 687.753906 672.601562 C 688 671.792969 688.207031 670.972656 688.371094 670.144531 C 688.535156 669.316406 688.660156 668.480469 688.742188 667.640625 C 688.824219 666.796875 688.867188 665.953125 688.867188 665.109375 C 688.859375 661.214844 688.777344 657.320312 688.621094 653.429688 C 688.464844 649.535156 688.234375 645.648438 687.929688 641.765625 C 687.621094 637.882812 687.242188 634.007812 686.789062 630.140625 C 686.332031 626.269531 685.804688 622.414062 685.199219 618.566406 C 684.597656 614.71875 683.917969 610.882812 683.167969 607.0625 C 682.417969 603.238281 681.59375 599.433594 680.695312 595.640625 C 679.796875 591.851562 678.828125 588.082031 677.785156 584.328125 C 676.742188 580.574219 675.628906 576.84375 674.445312 573.132812 C 673.257812 569.421875 672 565.738281 670.675781 562.074219 C 669.347656 558.414062 667.949219 554.777344 666.480469 551.171875 C 665.015625 547.5625 663.476562 543.984375 661.875 540.4375 C 660.269531 536.886719 658.59375 533.371094 656.855469 529.886719 C 655.113281 526.402344 653.308594 522.953125 651.433594 519.535156 C 649.5625 516.121094 647.625 512.742188 645.621094 509.402344 C 643.617188 506.0625 641.554688 502.761719 639.421875 499.5 C 637.292969 496.238281 635.101562 493.019531 632.847656 489.84375 C 630.59375 486.667969 628.28125 483.535156 625.90625 480.445312 C 623.53125 477.359375 621.101562 474.316406 618.609375 471.324219 C 616.117188 468.328125 613.570312 465.382812 610.964844 462.488281 C 608.363281 459.589844 605.703125 456.746094 602.988281 453.953125 C 600.277344 451.15625 597.507812 448.417969 594.691406 445.730469 C 591.871094 443.042969 589 440.410156 586.082031 437.832031 C 583.160156 435.253906 580.191406 432.734375 577.175781 430.269531 C 574.15625 427.808594 571.09375 425.402344 567.984375 423.058594 C 564.875 420.714844 561.722656 418.429688 558.523438 416.203125 C 555.324219 413.980469 552.085938 411.820312 548.804688 409.71875 C 545.527344 407.621094 542.207031 405.585938 538.847656 403.613281 C 535.488281 401.640625 532.09375 399.734375 528.660156 397.894531 C 525.226562 396.050781 521.761719 394.277344 518.261719 392.570312 C 514.761719 390.863281 511.226562 389.222656 507.664062 387.648438 C 504.101562 386.078125 500.507812 384.574219 496.886719 383.140625 C 493.265625 381.707031 489.617188 380.34375 485.945312 379.050781 Z M 384.875 128.695312 C 386.78125 128.695312 388.6875 128.742188 390.589844 128.835938 C 392.492188 128.929688 394.390625 129.070312 396.289062 129.257812 C 398.183594 129.445312 400.074219 129.675781 401.957031 129.957031 C 403.84375 130.234375 405.71875 130.5625 407.589844 130.933594 C 409.457031 131.304688 411.316406 131.722656 413.164062 132.183594 C 415.011719 132.648438 416.847656 133.15625 418.671875 133.710938 C 420.496094 134.261719 422.304688 134.859375 424.097656 135.503906 C 425.890625 136.144531 427.667969 136.828125 429.429688 137.558594 C 431.1875 138.289062 432.929688 139.058594 434.652344 139.875 C 436.375 140.6875 438.074219 141.546875 439.753906 142.441406 C 441.4375 143.339844 443.09375 144.28125 444.726562 145.257812 C 446.363281 146.238281 447.972656 147.257812 449.554688 148.316406 C 451.140625 149.375 452.695312 150.472656 454.226562 151.605469 C 455.757812 152.742188 457.257812 153.914062 458.730469 155.121094 C 460.203125 156.332031 461.648438 157.574219 463.058594 158.855469 C 464.46875 160.132812 465.851562 161.449219 467.195312 162.792969 C 468.542969 164.140625 469.859375 165.523438 471.136719 166.933594 C 472.417969 168.34375 473.660156 169.789062 474.871094 171.261719 C 476.078125 172.734375 477.25 174.234375 478.386719 175.765625 C 479.519531 177.296875 480.617188 178.851562 481.675781 180.4375 C 482.734375 182.019531 483.753906 183.628906 484.730469 185.265625 C 485.710938 186.898438 486.652344 188.554688 487.546875 190.234375 C 488.445312 191.917969 489.304688 193.617188 490.117188 195.339844 C 490.933594 197.0625 491.703125 198.804688 492.433594 200.5625 C 493.164062 202.324219 493.847656 204.101562 494.488281 205.894531 C 495.132812 207.6875 495.730469 209.496094 496.28125 211.320312 C 496.835938 213.144531 497.34375 214.980469 497.804688 216.828125 C 498.269531 218.675781 498.6875 220.535156 499.058594 222.402344 C 499.429688 224.273438 499.753906 226.148438 500.035156 228.03125 C 500.316406 229.917969 500.546875 231.808594 500.734375 233.703125 C 500.921875 235.601562 501.0625 237.5 501.15625 239.402344 C 501.25 241.304688 501.296875 243.210938 501.296875 245.113281 C 501.296875 247.019531 501.25 248.925781 501.15625 250.828125 C 501.0625 252.730469 500.921875 254.628906 500.734375 256.527344 C 500.546875 258.421875 500.316406 260.3125 500.035156 262.195312 C 499.753906 264.082031 499.429688 265.957031 499.058594 267.828125 C 498.6875 269.695312 498.269531 271.554688 497.804688 273.402344 C 497.34375 275.25 496.835938 277.085938 496.28125 278.910156 C 495.730469 280.734375 495.132812 282.542969 494.488281 284.335938 C 493.847656 286.128906 493.164062 287.90625 492.433594 289.667969 C 491.703125 291.425781 490.933594 293.167969 490.117188 294.890625 C 489.304688 296.613281 488.445312 298.3125 487.546875 299.996094 C 486.652344 301.675781 485.710938 303.332031 484.730469 304.964844 C 483.753906 306.601562 482.734375 308.210938 481.675781 309.792969 C 480.617188 311.378906 479.519531 312.933594 478.386719 314.464844 C 477.25 315.996094 476.078125 317.496094 474.871094 318.96875 C 473.660156 320.441406 472.417969 321.886719 471.136719 323.296875 C 469.859375 324.707031 468.542969 326.089844 467.195312 327.433594 C 465.851562 328.78125 464.46875 330.097656 463.058594 331.375 C 461.648438 332.65625 460.203125 333.898438 458.730469 335.109375 C 457.257812 336.316406 455.757812 337.488281 454.226562 338.625 C 452.695312 339.757812 451.140625 340.855469 449.554688 341.914062 C 447.972656 342.972656 446.363281 343.992188 444.726562 344.96875 C 443.09375 345.949219 441.4375 346.890625 439.757812 347.789062 C 438.074219 348.683594 436.375 349.542969 434.652344 350.355469 C 432.929688 351.171875 431.1875 351.941406 429.429688 352.671875 C 427.667969 353.402344 425.890625 354.085938 424.097656 354.726562 C 422.304688 355.371094 420.496094 355.96875 418.671875 356.519531 C 416.847656 357.074219 415.011719 357.582031 413.164062 358.042969 C 411.316406 358.507812 409.457031 358.925781 407.589844 359.296875 C 405.71875 359.667969 403.84375 359.992188 401.957031 360.273438 C 400.074219 360.554688 398.183594 360.785156 396.289062 360.972656 C 394.390625 361.160156 392.492188 361.300781 390.589844 361.394531 C 388.6875 361.488281 386.78125 361.535156 384.875 361.535156 C 382.972656 361.535156 381.066406 361.488281 379.164062 361.394531 C 377.261719 361.300781 375.363281 361.160156 373.464844 360.972656 C 371.570312 360.785156 369.679688 360.554688 367.792969 360.273438 C 365.910156 359.992188 364.03125 359.667969 362.164062 359.296875 C 360.296875 358.925781 358.4375 358.507812 356.589844 358.042969 C 354.742188 357.582031 352.90625 357.074219 351.082031 356.519531 C 349.257812 355.96875 347.449219 355.371094 345.65625 354.726562 C 343.863281 354.085938 342.085938 353.402344 340.324219 352.671875 C 338.566406 351.941406 336.824219 351.171875 335.101562 350.355469 C 333.378906 349.542969 331.675781 348.683594 329.996094 347.789062 C 328.316406 346.890625 326.660156 345.949219 325.027344 344.96875 C 323.390625 343.992188 321.78125 342.972656 320.199219 341.914062 C 318.613281 340.855469 317.054688 339.757812 315.527344 338.625 C 313.996094 337.488281 312.496094 336.316406 311.023438 335.109375 C 309.546875 333.898438 308.105469 332.65625 306.695312 331.375 C 305.28125 330.097656 303.902344 328.78125 302.554688 327.433594 C 301.210938 326.089844 299.894531 324.707031 298.617188 323.296875 C 297.335938 321.886719 296.09375 320.441406 294.882812 318.96875 C 293.675781 317.496094 292.503906 315.996094 291.367188 314.464844 C 290.234375 312.933594 289.136719 311.378906 288.078125 309.792969 C 287.019531 308.210938 286 306.601562 285.019531 304.964844 C 284.042969 303.332031 283.101562 301.675781 282.203125 299.996094 C 281.304688 298.3125 280.449219 296.613281 279.636719 294.890625 C 278.820312 293.167969 278.050781 291.425781 277.320312 289.667969 C 276.589844 287.90625 275.90625 286.128906 275.261719 284.335938 C 274.621094 282.542969 274.023438 280.734375 273.472656 278.910156 C 272.917969 277.085938 272.410156 275.25 271.945312 273.402344 C 271.484375 271.554688 271.066406 269.695312 270.695312 267.828125 C 270.324219 265.957031 269.996094 264.082031 269.71875 262.195312 C 269.4375 260.3125 269.207031 258.421875 269.019531 256.527344 C 268.832031 254.628906 268.691406 252.730469 268.597656 250.828125 C 268.503906 248.925781 268.457031 247.019531 268.457031 245.113281 C 268.460938 243.210938 268.507812 241.308594 268.605469 239.40625 C 268.699219 237.503906 268.839844 235.601562 269.03125 233.707031 C 269.21875 231.8125 269.453125 229.921875 269.734375 228.039062 C 270.015625 226.15625 270.34375 224.28125 270.714844 222.410156 C 271.089844 220.542969 271.507812 218.6875 271.972656 216.839844 C 272.4375 214.992188 272.945312 213.15625 273.5 211.335938 C 274.054688 209.511719 274.652344 207.703125 275.292969 205.910156 C 275.9375 204.117188 276.625 202.34375 277.351562 200.582031 C 278.082031 198.824219 278.855469 197.082031 279.671875 195.363281 C 280.484375 193.640625 281.34375 191.941406 282.242188 190.261719 C 283.140625 188.582031 284.078125 186.925781 285.058594 185.292969 C 286.039062 183.65625 287.058594 182.050781 288.117188 180.464844 C 289.175781 178.882812 290.273438 177.324219 291.40625 175.796875 C 292.542969 174.265625 293.714844 172.765625 294.921875 171.292969 C 296.128906 169.820312 297.375 168.378906 298.652344 166.96875 C 299.933594 165.558594 301.246094 164.179688 302.59375 162.832031 C 303.941406 161.484375 305.320312 160.171875 306.730469 158.890625 C 308.140625 157.613281 309.582031 156.371094 311.054688 155.160156 C 312.527344 153.953125 314.027344 152.78125 315.558594 151.644531 C 317.085938 150.511719 318.644531 149.414062 320.226562 148.355469 C 321.8125 147.296875 323.417969 146.277344 325.050781 145.296875 C 326.6875 144.316406 328.34375 143.378906 330.023438 142.480469 C 331.703125 141.582031 333.402344 140.726562 335.125 139.910156 C 336.84375 139.09375 338.585938 138.320312 340.34375 137.59375 C 342.105469 136.863281 343.878906 136.175781 345.671875 135.53125 C 347.464844 134.890625 349.273438 134.292969 351.097656 133.738281 C 352.917969 133.183594 354.753906 132.675781 356.601562 132.210938 C 358.449219 131.746094 360.304688 131.328125 362.171875 130.953125 C 364.039062 130.582031 365.917969 130.253906 367.800781 129.972656 C 369.683594 129.691406 371.574219 129.457031 373.46875 129.269531 C 375.363281 129.082031 377.261719 128.9375 379.164062 128.84375 C 381.066406 128.746094 382.972656 128.699219 384.875 128.695312 Z M 384.875 128.695312 " fill-opacity="1" fill-rule="nonzero"/></g><path stroke-linecap="round" transform="matrix(0.75, 0, 0, 0.75, 76.799999, 620.431165)" fill="none" stroke-linejoin="miter" d="M 43.501045 43.498032 L 743.797955 43.498032 " stroke="#3f4b6f" stroke-width="87" stroke-opacity="1" stroke-miterlimit="4"/></svg>